<svg xmlns="http://www.w3.org/2000/svg" width="256" height="256" version="1.1" viewBox="0 0 256 256"><path fill="none" stroke="green" stroke-opacity=".375" stroke-width="5" d="M102,42 Q 165,22 59 48 T 197 164"/><path fill="none" stroke="green" stroke-opacity=".375" stroke-width="5" d="M102,42 Q 165,22 59 48 T 197 164" transform="rotate(120.0 128 128)"/><path fill="none" stroke="green" stroke-opacity=".375" stroke-width="5" d="M102,42 Q 165,22 59 48 T 197 164" transform="rotate(240.0 128 128)"/><rect width="59" height="132" x="24" y="98" fill="none" stroke="#00f" stroke-opacity=".75" stroke-width="3.75"/><rect width="59" height="132" x="24" y="98" fill="none" stroke="#00f" stroke-opacity=".75" stroke-width="3.75" transform="rotate(-120.0 128 128)"/><rect width="59" height="132" x="24" y="98" fill="none" stroke="#00f" stroke-opacity=".75" stroke-width="3.75" transform="rotate(-240.0 128 128)"/><path fill="none" stroke="red" stroke-opacity=".625" stroke-width="1.75" d="M6,39 Q 230,177 256 149 T 37 164"/><path fill="none" stroke="red" stroke-opacity=".625" stroke-width="1.75" d="M6,39 Q 230,177 256 149 T 37 164" transform="rotate(120.0 128 128)"/><path fill="none" stroke="red" stroke-opacity=".625" stroke-width="1.75" d="M6,39 Q 230,177 256 149 T 37 164" transform="rotate(240.0 128 128)"/></svg>